<?xml version="1.0" standalone="no"?>
<!DOCTYPE svg PUBLIC "-//W3C//DTD SVG 20010904//EN"
 "http://www.w3.org/TR/2001/REC-SVG-20010904/DTD/svg10.dtd">
<svg version="1.0" xmlns="http://www.w3.org/2000/svg"
 width="128.000000pt" height="128.000000pt" viewBox="0 0 128.000000 128.000000"
 preserveAspectRatio="xMidYMid meet">

<g transform="translate(0.000000,128.000000) scale(0.100000,-0.100000)"
fill="#000000" stroke="none">
<path d="M0 1035 l0 -245 52 0 c40 0 49 3 40 12 -27 27 0 88 40 88 8 0 23 9
34 21 13 15 29 20 59 18 22 -1 51 3 65 8 14 6 44 19 67 28 44 19 101 15 125
-8 7 -7 36 -13 65 -14 29 -1 60 -6 69 -11 12 -7 22 -5 34 7 9 9 25 21 36 27
13 8 18 20 16 42 -2 30 -1 32 30 29 18 -2 50 2 71 10 30 10 49 10 87 1 28 -6
50 -14 50 -17 0 -3 20 -7 45 -8 24 -1 53 -7 64 -13 13 -7 22 -7 26 0 14 23 51
8 97 -41 26 -28 48 -56 48 -61 0 -5 7 -17 16 -25 10 -10 13 -25 9 -40 -6 -24
8 -53 26 -53 5 0 9 110 9 245 l0 245 -640 0 -640 0 0 -245z m195 203 c0 -32
-18 -39 -23 -8 -2 11 -8 18 -13 15 -12 -8 -12 -145 1 -145 6 0 10 9 10 20 0
11 7 20 16 20 11 0 14 -8 12 -32 -3 -29 -7 -33 -35 -36 l-33 -3 0 101 0 101
33 -3 c28 -3 32 -7 32 -30z m67 -34 c4 -32 10 -76 13 -96 6 -40 -12 -55 -22
-18 -3 11 -9 20 -14 20 -5 0 -9 -9 -9 -20 0 -11 -5 -20 -11 -20 -12 0 -8 95 7
169 10 49 28 31 36 -35z m88 7 c0 -50 -3 -59 -20 -64 -15 -4 -20 -14 -20 -41
0 -20 -4 -36 -10 -36 -6 0 -10 40 -10 100 l0 100 30 0 c30 0 30 0 30 -59z m40
-41 c0 -60 -4 -100 -10 -100 -6 0 -10 40 -10 100 0 60 4 100 10 100 6 0 10
-40 10 -100z m70 85 c0 -8 -4 -15 -10 -15 -6 0 -10 -35 -10 -85 0 -50 -4 -85
-10 -85 -6 0 -10 35 -10 85 0 50 -4 85 -10 85 -5 0 -10 7 -10 15 0 10 10 15
30 15 20 0 30 -5 30 -15z m62 -51 c4 -32 10 -76 13 -96 6 -40 -12 -55 -22 -18
-3 11 -9 20 -14 20 -5 0 -9 -9 -9 -20 0 -11 -5 -20 -11 -20 -12 0 -6 122 8
178 10 40 28 17 35 -44z m62 19 l14 -48 -1 44 c-1 27 3 45 11 48 9 4 12 -20
12 -97 0 -76 -3 -101 -12 -98 -7 3 -18 24 -24 49 l-12 44 -1 -47 c-1 -27 -5
-48 -11 -48 -6 0 -10 40 -10 100 0 56 4 100 9 100 6 0 16 -21 25 -47z m129 25
c14 -56 20 -178 8 -178 -6 0 -11 9 -11 20 0 11 -4 20 -9 20 -5 0 -11 -9 -14
-20 -9 -35 -30 -24 -23 13 3 17 8 57 11 87 4 30 8 61 10 68 7 20 22 14 28 -10z
m64 -20 l7 -43 11 39 c6 22 17 42 23 44 9 3 12 -25 12 -98 0 -77 -3 -101 -12
-97 -8 2 -12 18 -11 38 1 19 0 27 -3 19 -3 -8 -8 -22 -11 -30 -4 -11 -8 -8
-13 10 -8 23 -8 23 -9 -7 -1 -35 -15 -44 -25 -17 -3 9 -6 54 -6 100 0 68 3 84
15 84 10 0 17 -15 22 -42z m123 32 c0 -6 -7 -13 -15 -16 -17 -7 -21 -54 -5
-54 6 0 10 -7 10 -15 0 -8 -4 -15 -10 -15 -5 0 -10 -13 -10 -30 0 -20 5 -30
15 -30 8 0 15 -7 15 -15 0 -10 -10 -15 -30 -15 l-30 0 0 100 0 100 30 0 c17 0
30 -5 30 -10z m73 -45 c-2 -27 -3 -60 -4 -73 -1 -12 2 -33 5 -47 5 -18 2 -25
-8 -25 -9 0 -18 18 -24 48 l-10 47 -1 -47 c0 -27 -5 -48 -11 -48 -6 0 -10 40
-10 101 l0 100 33 -3 c32 -3 32 -3 30 -53z m37 -45 c0 -60 -4 -100 -10 -100
-6 0 -10 40 -10 100 0 60 4 100 10 100 6 0 10 -40 10 -100z m80 66 c0 -19 -6
-36 -13 -39 -10 -4 -13 2 -9 18 2 12 -1 26 -7 29 -8 5 -11 -16 -11 -68 0 -44
4 -76 10 -76 6 0 10 9 10 20 0 11 5 20 11 20 6 0 9 -14 7 -32 -3 -29 -6 -33
-33 -33 l-30 0 -3 84 c-2 46 -1 90 2 98 3 7 19 13 36 13 27 0 30 -3 30 -34z
m70 -62 c6 -53 9 -99 5 -102 -8 -8 -25 19 -19 30 3 4 -2 8 -10 8 -9 0 -16 -9
-16 -20 0 -11 -4 -20 -10 -20 -13 0 -12 4 1 112 16 120 33 117 49 -8z m-769
-146 c0 -10 2 -10 6 0 8 19 53 15 54 -5 1 -17 2 -17 6 -1 5 19 52 22 65 3 5
-7 8 -6 8 2 0 6 15 11 35 11 27 0 35 -4 35 -18 0 -17 -10 -19 -118 -19 -109 0
-118 2 -119 20 -1 10 5 19 13 19 8 0 14 -6 15 -12z m286 -8 c-2 -25 -57 -25
-57 0 0 14 7 18 29 18 21 -1 29 -6 28 -18z"/>
<path d="M238 1165 c-3 -14 -1 -28 3 -31 5 -3 9 9 9 25 0 38 -6 40 -12 6z"/>
<path d="M317 1243 c-11 -10 -8 -73 3 -73 6 0 10 18 10 40 0 41 -2 45 -13 33z"/>
<path d="M498 1165 c-3 -14 -1 -28 3 -31 5 -3 9 9 9 25 0 38 -6 40 -12 6z"/>
<path d="M690 1154 c0 -14 4 -23 9 -20 5 3 7 15 4 26 -7 28 -13 25 -13 -6z"/>
<path d="M930 1210 c0 -16 5 -30 10 -30 6 0 10 14 10 30 0 17 -4 30 -10 30 -5
0 -10 -13 -10 -30z"/>
<path d="M1132 1160 c0 -19 2 -27 5 -17 2 9 2 25 0 35 -3 9 -5 1 -5 -18z"/>
<path d="M866 924 c2 -11 -5 -31 -18 -47 -23 -28 -24 -28 -71 -17 -45 12 -49
11 -90 -16 -23 -15 -43 -29 -45 -30 -1 -1 2 -13 7 -27 8 -22 7 -27 -9 -32 -10
-3 -25 -16 -34 -29 -10 -16 -29 -26 -55 -31 -22 -4 -45 -13 -52 -21 -13 -16
-33 -19 -24 -3 4 6 -2 5 -13 -2 -12 -7 -20 -18 -19 -23 1 -6 -4 -10 -12 -11
-8 0 -23 -14 -33 -31 l-18 -31 28 5 c18 2 33 -2 41 -12 8 -9 18 -16 23 -16 5
0 -4 11 -19 25 -15 13 -23 25 -17 25 7 0 14 9 17 20 4 14 10 18 23 13 12 -4
15 -3 10 5 -14 23 31 12 59 -14 16 -15 25 -19 22 -10 -4 11 3 21 23 31 50 26
56 17 15 -25 -21 -22 -35 -40 -29 -40 5 0 15 9 22 20 7 11 17 20 24 20 6 0 4
-8 -6 -19 -20 -22 -14 -41 12 -42 9 0 12 -3 7 -5 -6 -2 -9 -21 -7 -42 3 -27 9
-38 21 -39 14 -1 17 4 13 23 -2 13 3 35 12 49 20 30 14 45 -18 45 -31 0 -29
30 2 48 26 15 42 9 42 -16 0 -12 -3 -13 -12 -4 -16 16 -28 15 -28 -3 0 -8 4
-14 9 -12 5 1 16 -6 23 -16 12 -16 15 -16 33 -2 11 8 16 14 10 13 -5 -2 -11 0
-12 5 -6 17 -2 27 13 27 8 0 12 -4 9 -10 -3 -5 -2 -10 4 -10 6 0 15 9 21 20 6
11 22 23 35 26 13 3 29 12 36 20 15 18 39 18 39 -1 0 -9 -6 -12 -15 -9 -17 7
-48 -14 -40 -26 3 -4 -2 -10 -10 -14 -8 -3 -15 -10 -15 -15 0 -5 13 -4 30 2
25 9 33 9 39 -1 7 -11 9 -10 14 2 14 36 24 13 15 -35 -6 -34 -6 -55 1 -62 12
-12 34 63 25 89 -6 17 -5 17 9 -1 10 -13 12 -25 6 -37 -12 -23 -12 -78 0 -59
8 12 14 11 38 -4 15 -11 33 -20 38 -21 6 0 16 -2 23 -2 6 -1 12 -10 12 -20 0
-10 11 -25 25 -32 14 -7 25 -17 25 -22 0 -5 5 -6 10 -3 19 12 10 33 -19 43
-19 7 -31 19 -35 39 -4 15 -16 37 -25 48 -16 17 -27 46 -37 93 -1 6 4 12 12
12 8 0 11 -6 8 -15 -4 -9 0 -15 10 -15 12 0 16 -10 16 -35 0 -19 3 -35 8 -35
4 0 8 28 8 63 0 66 35 187 59 207 18 15 13 -16 -16 -95 -25 -70 -30 -145 -10
-168 12 -15 15 -15 32 7 25 31 24 39 -2 31 -21 -7 -22 -5 -15 46 10 73 41 143
61 135 10 -4 15 1 15 15 0 13 -8 23 -21 26 -14 4 -19 12 -16 24 8 31 -22 9
-48 -36 -24 -40 -66 -71 -79 -58 -3 4 -6 17 -6 29 0 30 -17 39 -45 24 -20 -11
-30 -10 -59 4 -32 15 -34 19 -24 41 10 22 38 25 38 3 0 -6 -7 -8 -15 -4 -9 3
-15 0 -15 -10 0 -29 35 -10 53 29 23 50 9 82 -32 74 -16 -3 -33 -1 -39 5 -8 8
-10 6 -6 -8z m78 -20 c9 -22 8 -24 -9 -18 -8 4 -15 12 -15 20 0 19 16 18 24
-2z m-190 -60 c9 -23 8 -24 -18 -14 -13 5 -26 8 -28 7 -2 -1 3 4 11 11 20 16
28 15 35 -4z m101 -81 c-6 -16 29 -35 49 -27 9 3 16 2 16 -4 0 -13 -48 -8 -63
7 -6 6 -20 11 -31 10 -20 0 -20 -1 2 -9 22 -9 31 -40 12 -40 -5 0 -10 5 -10
10 0 6 -9 10 -20 10 -11 0 -20 3 -21 8 0 4 -2 17 -5 30 -4 24 2 27 26 13 20
-14 33 -2 18 16 -12 15 -11 15 10 2 12 -8 20 -20 17 -26z m163 -59 c2 -15 -4
-23 -17 -27 -18 -4 -21 0 -21 25 0 23 4 29 18 26 9 -2 18 -13 20 -24z m-198
-4 c0 -5 -12 -17 -27 -27 -16 -10 -30 -20 -33 -23 -3 -3 -12 -6 -20 -8 -8 -2
1 13 19 32 34 35 61 46 61 26z m110 -16 c0 -8 -7 -14 -15 -14 -15 0 -21 21 -9
33 10 9 24 -2 24 -19z m28 -41 c-10 -2 -26 -2 -35 0 -10 3 -2 5 17 5 19 0 27
-2 18 -5z"/>
<path d="M410 787 c0 -10 -4 -17 -9 -17 -15 0 -22 -49 -10 -71 9 -18 13 -19
27 -6 9 8 25 17 35 20 10 4 15 11 12 17 -4 6 -17 4 -36 -5 -24 -13 -29 -13
-29 -1 0 13 27 31 43 28 14 -3 7 15 -13 33 -18 16 -20 16 -20 2z"/>
<path d="M245 760 c14 -6 15 -9 5 -9 -13 -1 -13 -2 0 -11 9 -5 18 -6 24 0 5 5
23 6 40 3 24 -4 28 -3 20 6 -6 7 -33 14 -60 16 -35 3 -43 2 -29 -5z"/>
<path d="M50 750 c-30 -4 -47 -7 -36 -8 14 -2 16 -5 7 -15 -6 -8 -8 -17 -4
-20 3 -4 2 -7 -4 -7 -5 0 -10 -6 -10 -14 0 -11 6 -12 26 -4 33 12 77 4 121
-24 19 -12 53 -23 75 -23 22 -1 60 -4 85 -8 31 -4 24 -1 -20 10 -36 8 -69 22
-73 29 -4 8 -17 14 -27 14 -12 0 -20 7 -20 18 -1 15 -2 15 -10 1 -7 -12 -18
-15 -42 -10 -37 8 -49 30 -19 38 19 5 32 35 14 31 -5 -1 -33 -4 -63 -8z"/>
<path d="M1146 713 c-6 -14 -5 -15 5 -6 7 7 10 15 7 18 -3 3 -9 -2 -12 -12z"/>
<path d="M440 680 c0 -5 5 -10 10 -10 6 0 10 5 10 10 0 6 -4 10 -10 10 -5 0
-10 -4 -10 -10z"/>
<path d="M1120 625 c0 -8 4 -15 9 -15 5 0 11 7 15 15 3 9 0 15 -9 15 -8 0 -15
-7 -15 -15z"/>
<path d="M1240 621 c0 -5 9 -11 20 -14 24 -6 27 8 4 17 -21 8 -24 8 -24 -3z"/>
<path d="M46 603 c-8 -9 71 -33 104 -32 24 1 23 1 -5 10 -16 6 -39 11 -51 13
-11 2 -25 6 -31 9 -6 4 -13 3 -17 0z"/>
<path d="M509 583 c-13 -16 -12 -17 4 -4 9 7 17 15 17 17 0 8 -8 3 -21 -13z"/>
<path d="M712 560 c-37 -23 -40 -42 -12 -72 10 -12 17 -24 15 -28 -3 -4 2 -13
10 -20 7 -6 11 -18 8 -27 -5 -13 0 -14 25 -8 27 6 31 4 26 -10 -5 -11 0 -18
14 -22 30 -7 38 -35 9 -31 -15 2 -22 -2 -21 -13 1 -11 -6 -14 -27 -11 -21 3
-29 10 -30 26 0 11 -3 15 -6 9 -8 -20 -21 -15 -25 10 -4 19 -6 18 -14 -11 -5
-18 -13 -34 -17 -34 -33 -3 -90 16 -111 37 -29 29 -36 31 -36 10 0 -8 -6 -14
-12 -12 -7 1 -14 -8 -16 -19 -2 -12 -13 -30 -25 -40 -12 -10 -16 -12 -9 -4 6
8 12 21 12 30 0 9 14 33 30 52 23 27 36 34 54 31 13 -3 27 0 30 6 4 6 1 9 -7
5 -8 -3 -22 3 -32 12 -15 16 -15 18 -1 26 9 5 14 14 10 19 -4 7 3 9 17 7 21
-3 24 1 22 26 -2 29 -21 48 -53 53 -16 2 -59 -44 -60 -64 0 -20 18 -15 30 7 6
11 18 20 28 20 13 0 12 -3 -6 -16 -18 -13 -21 -19 -11 -30 7 -9 8 -14 1 -14
-6 0 -12 6 -15 13 -3 6 -10 0 -16 -16 -9 -24 -14 -26 -30 -17 -22 11 -95 14
-88 3 3 -5 -5 -8 -18 -8 -13 0 -21 3 -18 8 2 4 -11 7 -30 7 -40 0 -78 -33 -59
-52 12 -12 -14 -75 -46 -111 -14 -15 -17 -16 -32 -2 -15 14 -20 13 -48 -1 -18
-8 -32 -17 -32 -18 0 -18 25 -66 36 -70 15 -6 20 -56 6 -56 -4 0 -14 6 -22 13
-7 6 -3 -5 10 -27 29 -48 33 -86 13 -108 -15 -17 -11 -18 76 -18 l92 0 -7 37
c-9 41 -9 111 -2 119 7 6 91 -24 98 -36 6 -10 30 -14 69 -12 20 2 21 4 11 17
-10 12 -9 15 6 15 16 0 15 2 -5 21 -12 12 -20 27 -17 35 7 19 -13 18 -34 -1
-15 -14 -19 -13 -35 5 -21 23 -14 34 25 43 21 5 31 -2 63 -43 20 -26 37 -57
37 -69 0 -12 11 -26 28 -35 16 -8 36 -32 47 -55 15 -34 23 -41 47 -41 26 0 28
2 18 20 -6 11 -7 20 -3 20 4 0 -1 7 -11 15 -11 8 -15 15 -10 15 6 0 16 -6 22
-12 10 -10 15 -10 22 2 14 22 12 57 -5 74 -8 8 -15 21 -15 30 0 8 -4 17 -9 20
-13 9 -1 46 15 46 7 0 18 -17 24 -37 9 -34 39 -96 40 -83 0 3 -7 27 -15 54
-16 54 -13 67 13 48 9 -7 25 -15 34 -18 18 -6 34 -41 24 -51 -9 -9 24 -43 41
-43 7 0 22 20 33 45 11 25 22 45 25 45 4 0 4 -4 1 -8 -5 -9 28 -42 43 -42 5 0
12 -7 15 -16 5 -13 9 -14 21 -4 11 9 14 8 12 -9 -1 -12 -7 -21 -15 -21 -7 0
-25 -9 -41 -21 -15 -11 -45 -26 -67 -34 -33 -12 -35 -14 -13 -15 14 0 43 11
63 25 56 38 67 34 41 -15 l-16 -30 118 0 c127 1 124 -2 58 45 -12 9 -16 17
-10 22 37 29 95 106 95 125 0 31 -24 74 -39 70 -7 -1 -10 2 -6 7 7 13 -53 97
-67 93 -5 -1 -7 2 -3 8 9 15 -18 48 -62 77 l-38 25 35 -32 35 -31 -32 15 c-18
9 -43 16 -58 16 -16 0 -25 6 -25 15 0 13 -4 14 -20 5 -20 -11 -30 3 -10 15 5
3 -10 26 -33 51 -52 54 -95 64 -145 34z m58 6 c0 -3 -4 -8 -10 -11 -5 -3 -10
-1 -10 4 0 6 5 11 10 11 6 0 10 -2 10 -4z m-53 -58 c-3 -8 -6 -5 -6 6 -1 11 2
17 5 13 3 -3 4 -12 1 -19z m62 -42 c9 -10 7 -19 -10 -37 l-20 -24 4 28 c2 15
0 27 -5 27 -5 0 -6 5 -3 10 9 14 20 13 34 -4z m31 -31 c0 -8 -4 -15 -10 -15
-5 0 -10 7 -10 15 0 8 5 15 10 15 6 0 10 -7 10 -15z m115 -11 c19 -12 25 -13
25 -3 0 21 13 1 31 -47 14 -36 14 -43 3 -33 -8 6 -14 17 -14 25 0 22 -32 34
-49 17 -13 -13 -16 -12 -32 9 -12 14 -19 18 -19 9 0 -8 -3 -12 -6 -9 -8 8 14
48 27 48 5 0 21 -7 34 -16z m-620 -67 c-22 -31 -18 -43 4 -16 l19 24 26 -24
c32 -30 32 -38 4 -47 -19 -6 -19 -7 -5 -16 21 -11 23 -32 2 -25 -8 4 -17 2
-21 -4 -4 -6 -13 -4 -25 7 -21 19 -27 6 -7 -14 10 -10 10 -15 -2 -22 -22 -14
-40 -8 -62 20 -16 23 -17 30 -6 56 25 59 61 104 75 92 10 -8 10 -14 -2 -31z
m299 -46 c33 -6 61 -11 63 -11 1 0 0 -7 -3 -15 -4 -8 -14 -15 -24 -15 -10 0
-23 7 -30 15 -15 18 -34 20 -24 3 4 -7 7 -30 6 -53 -1 -22 7 -65 17 -95 19
-54 19 -79 0 -50 -5 8 -19 45 -31 83 -16 48 -27 67 -39 67 -11 0 -19 11 -23
34 -8 41 1 71 18 57 6 -5 38 -14 70 -20z m318 0 c8 11 9 11 6 1 -4 -16 -22
-18 -24 -2 -2 7 -1 6 3 -1 4 -8 8 -7 15 2z m63 -19 c-3 -3 -11 0 -18 7 -9 10
-8 11 6 5 10 -3 15 -9 12 -12z m-265 -12 c8 -5 11 -12 8 -16 -10 -9 -38 3 -38
16 0 12 10 13 30 0z m290 -25 c0 -3 -13 -2 -30 1 -18 4 -36 1 -45 -6 -9 -7
-18 -11 -21 -8 -2 3 10 12 28 21 22 11 37 13 50 6 10 -5 18 -12 18 -14z m-195
-5 c-3 -5 -12 -7 -20 -3 -21 7 -19 13 6 13 11 0 18 -4 14 -10z m199 -19 c3 -5
-6 -8 -19 -8 -14 0 -28 3 -31 8 -3 5 6 9 20 9 14 0 27 -4 30 -9z m-809 -132
c8 -37 2 -45 -22 -28 -20 15 -22 27 -10 47 13 20 25 14 32 -19z"/>
<path d="M280 290 c0 -5 5 -10 10 -10 6 0 10 5 10 10 0 6 -4 10 -10 10 -5 0
-10 -4 -10 -10z"/>
<path d="M530 260 c0 -5 5 -10 10 -10 6 0 10 5 10 10 0 6 -4 10 -10 10 -5 0
-10 -4 -10 -10z"/>
<path d="M412 546 c2 -17 6 -22 14 -16 6 6 15 6 20 2 5 -4 0 3 -10 16 -24 28
-26 28 -24 -2z"/>
<path d="M184 521 c-47 -22 -51 -27 -60 -71 l-10 -47 26 7 c33 9 70 32 70 43
0 4 4 6 9 3 5 -3 11 16 14 42 3 26 4 47 4 47 -1 0 -25 -10 -53 -24z"/>
<path d="M1155 520 c4 -6 11 -8 16 -5 14 9 11 15 -7 15 -8 0 -12 -5 -9 -10z"/>
<path d="M1256 505 c-3 -8 -1 -15 4 -15 6 0 10 7 10 15 0 8 -2 15 -4 15 -2 0
-6 -7 -10 -15z"/>
<path d="M1075 490 c3 -5 11 -10 16 -10 6 0 7 5 4 10 -3 6 -11 10 -16 10 -6 0
-7 -4 -4 -10z"/>
<path d="M418 463 c7 -3 16 -2 19 1 4 3 -2 6 -13 5 -11 0 -14 -3 -6 -6z"/>
<path d="M567 453 c-10 -9 -9 -23 2 -23 5 0 11 7 15 15 5 15 -5 20 -17 8z"/>
<path d="M1215 403 c11 -3 23 -10 27 -17 5 -7 8 -5 8 7 0 12 -7 17 -27 16 -22
-1 -23 -2 -8 -6z"/>
<path d="M52 375 c-22 -12 -22 -13 -3 -18 12 -3 22 1 26 11 7 20 4 21 -23 7z"/>
</g>
</svg>
