<?xml version="1.0" standalone="no"?>
<!DOCTYPE svg PUBLIC "-//W3C//DTD SVG 20010904//EN"
 "http://www.w3.org/TR/2001/REC-SVG-20010904/DTD/svg10.dtd">
<svg version="1.0" xmlns="http://www.w3.org/2000/svg"
 width="128.000000pt" height="128.000000pt" viewBox="0 0 128.000000 128.000000"
 preserveAspectRatio="xMidYMid meet">

<g transform="translate(0.000000,128.000000) scale(0.100000,-0.100000)"
fill="#000000" stroke="none">
<path d="M565 1220 c-3 -6 1 -7 9 -4 18 7 21 14 7 14 -6 0 -13 -4 -16 -10z"/>
<path d="M1179 1173 c-13 -16 -12 -17 4 -4 9 7 17 15 17 17 0 8 -8 3 -21 -13z"/>
<path d="M190 1064 c0 -6 7 -19 16 -30 14 -18 14 -18 3 6 -14 31 -19 36 -19
24z"/>
<path d="M430 931 c0 -12 5 -21 10 -21 6 0 10 6 10 14 0 8 -4 18 -10 21 -5 3
-10 -3 -10 -14z"/>
<path d="M500 941 c0 -6 4 -12 8 -15 5 -3 9 1 9 9 0 8 -4 15 -9 15 -4 0 -8 -4
-8 -9z"/>
<path d="M612 930 c0 -14 2 -19 5 -12 2 6 2 18 0 25 -3 6 -5 1 -5 -13z"/>
<path d="M650 928 c0 -12 3 -18 7 -14 11 10 12 36 2 36 -5 0 -9 -10 -9 -22z"/>
<path d="M790 940 c-13 -9 -13 -11 0 -20 15 -10 25 0 18 20 -2 6 -8 6 -18 0z"/>
<path d="M823 934 c-7 -20 12 -41 22 -23 5 8 4 10 -3 5 -7 -4 -12 -1 -12 9 0
10 5 13 12 9 7 -4 8 -3 4 4 -10 16 -15 15 -23 -4z"/>
<path d="M893 934 c-7 -20 12 -41 22 -23 5 8 4 10 -3 5 -7 -4 -12 -1 -12 9 0
10 5 13 12 9 7 -4 8 -3 4 4 -10 16 -15 15 -23 -4z"/>
<path d="M581 924 c0 -11 3 -14 6 -6 3 7 2 16 -1 19 -3 4 -6 -2 -5 -13z"/>
<path d="M640 793 c-11 -8 -29 -12 -38 -8 -19 7 -28 4 -24 -8 1 -4 -5 -10 -13
-13 -19 -8 -20 -34 0 -34 8 0 15 -7 15 -17 0 -15 1 -15 18 0 10 10 22 14 25
10 13 -12 7 -21 -23 -32 -31 -10 -33 -15 -30 -70 1 -22 -2 -31 -9 -27 -7 5
-11 -5 -11 -26 0 -23 -8 -39 -27 -55 -18 -16 -21 -23 -11 -23 20 0 46 39 68
104 17 47 18 49 22 21 l4 -30 14 28 c10 20 16 24 21 15 6 -9 12 -3 20 19 6 18
15 30 21 27 6 -4 6 -10 -1 -17 -6 -6 -11 -20 -11 -32 0 -11 -13 -36 -30 -55
-16 -19 -29 -40 -30 -47 0 -6 -11 -11 -24 -10 -14 1 -24 -2 -23 -8 1 -5 17 -9
35 -9 17 1 32 -3 32 -8 0 -5 9 -4 20 2 11 6 20 18 20 27 0 13 -2 14 -17 2 -17
-13 -17 -13 -3 6 8 11 19 23 25 27 13 10 27 -2 21 -18 -8 -21 69 21 88 48 18
25 21 68 6 68 -7 0 -7 6 0 19 12 23 -5 71 -26 71 -7 0 -20 10 -28 22 -8 12
-29 27 -45 34 -24 10 -33 10 -51 -3z m20 -83 c0 -6 -6 -13 -14 -16 -8 -3 -17
-17 -21 -31 -3 -14 -8 -23 -11 -20 -8 7 26 77 37 77 5 0 9 -5 9 -10z"/>
<path d="M514 582 c4 -45 3 -52 -9 -42 -11 9 -12 7 -8 -10 5 -20 7 -20 24 -4
23 21 25 63 3 90 -14 18 -15 15 -10 -34z"/>
<path d="M595 569 c-4 -6 -5 -12 -2 -15 7 -7 37 7 37 17 0 13 -27 11 -35 -2z"/>
<path d="M846 495 c-9 -14 -46 -57 -83 -95 -36 -39 -61 -70 -56 -70 14 0 163
171 163 187 0 9 -10 0 -24 -22z"/>
<path d="M750 500 c-8 -5 -10 -10 -5 -10 6 0 17 5 25 10 8 5 11 10 5 10 -5 0
-17 -5 -25 -10z"/>
<path d="M518 433 c12 -2 30 -2 40 0 9 3 -1 5 -23 4 -22 0 -30 -2 -17 -4z"/>
<path d="M494 348 c15 -18 31 -38 36 -45 15 -18 79 -28 93 -14 8 8 3 11 -20
11 -21 0 -44 12 -76 40 -55 48 -68 51 -33 8z"/>
<path d="M299 226 c38 -18 61 -20 61 -6 0 6 -6 10 -14 10 -7 0 -29 2 -47 6
l-34 5 34 -15z"/>
<path d="M78 142 c-87 -3 -108 -22 -25 -22 49 0 55 -3 86 -40 18 -22 43 -43
56 -46 13 -3 26 -12 29 -20 4 -11 27 -14 95 -14 l90 0 -1 34 c-1 40 -15 60
-48 72 -24 8 -24 8 9 14 19 3 36 10 38 15 3 10 -161 13 -329 7z"/>
<path d="M940 110 c0 -28 2 -29 20 -18 11 7 20 16 20 21 0 4 10 12 23 17 18 7
15 9 -20 9 -41 1 -43 0 -43 -29z"/>
<path d="M1078 108 c-2 -25 -10 -34 -38 -45 l-35 -13 43 4 c23 2 42 0 42 -5 0
-12 57 -12 65 0 3 5 -9 11 -27 13 -31 3 -33 5 -33 41 0 45 -13 49 -17 5z"/>
<path d="M1245 130 c3 -5 13 -10 21 -10 8 0 14 5 14 10 0 6 -9 10 -21 10 -11
0 -17 -4 -14 -10z"/>
<path d="M1205 60 c-18 -8 -17 -9 8 -9 16 -1 26 3 22 9 -3 6 -7 10 -8 9 -1 0
-11 -4 -22 -9z"/>
</g>
</svg>
