<?xml version="1.0" standalone="no"?>
<!DOCTYPE svg PUBLIC "-//W3C//DTD SVG 20010904//EN"
 "http://www.w3.org/TR/2001/REC-SVG-20010904/DTD/svg10.dtd">
<svg version="1.0" xmlns="http://www.w3.org/2000/svg"
 width="128.000000pt" height="128.000000pt" viewBox="0 0 128.000000 128.000000"
 preserveAspectRatio="xMidYMid meet">

<g transform="translate(0.000000,128.000000) scale(0.100000,-0.100000)"
fill="#000000" stroke="none">
<path d="M1 1174 c1 -88 4 -106 18 -110 9 -3 25 -10 36 -16 19 -10 19 -9 -1
13 -27 30 -47 69 -40 76 3 3 58 19 123 34 110 27 119 28 131 12 24 -33 4 -61
-25 -32 -6 6 -21 9 -34 7 -19 -2 -27 -14 -41 -62 -16 -54 -17 -61 -3 -83 17
-26 44 -29 76 -10 17 10 23 10 26 0 4 -10 84 -13 358 -13 345 0 354 0 360 20
3 11 11 20 17 20 6 0 16 7 23 17 11 14 13 12 19 -20 6 -33 10 -37 36 -37 40 0
66 38 52 77 -6 18 -6 36 1 51 19 43 5 46 -268 45 -140 -1 -255 2 -255 5 0 4
-37 5 -82 2 -46 -3 -119 -4 -163 -2 -69 2 -83 6 -94 23 -7 12 -9 24 -6 27 4 4
11 -1 16 -10 11 -20 40 -13 32 8 -3 9 2 14 13 15 20 1 34 4 47 9 16 6 29 8 70
10 30 2 35 4 17 8 -23 4 -24 5 -5 13 11 4 -87 8 -218 8 l-238 1 2 -106z m234
-44 c3 -11 12 -20 18 -20 7 0 19 9 27 20 15 21 40 27 40 9 0 -5 -5 -30 -11
-55 -8 -31 -17 -44 -29 -44 -13 0 -16 6 -13 28 4 25 3 25 -10 10 -8 -10 -17
-18 -20 -18 -3 0 -7 8 -10 18 -3 13 -6 11 -15 -10 -6 -16 -19 -28 -28 -28 -12
0 -14 6 -9 33 12 54 24 77 39 77 8 0 18 -9 21 -20z m132 -35 c-8 -43 -14 -55
-29 -55 -21 0 -21 -4 -7 60 8 37 15 50 28 50 16 0 17 -6 8 -55z m69 33 l7 -23
10 23 c13 29 37 28 37 -2 0 -52 -12 -86 -31 -86 -11 0 -16 5 -13 13 2 7 -2 21
-10 32 -13 18 -14 17 -21 -13 -4 -21 -12 -32 -24 -32 -16 0 -17 5 -10 43 4 23
8 48 9 55 0 21 38 13 46 -10z m164 12 c0 -5 -13 -10 -30 -10 -16 0 -30 -4 -30
-10 0 -5 11 -10 24 -10 14 0 28 -4 31 -10 4 -6 -7 -10 -24 -10 -21 0 -31 -5
-31 -15 0 -9 9 -15 25 -15 14 0 25 -4 25 -10 0 -5 -20 -10 -45 -10 -49 0 -50
2 -39 73 6 36 8 37 50 37 24 0 44 -4 44 -10z m100 0 c0 -5 -11 -10 -25 -10
-22 0 -25 -4 -25 -35 0 -31 3 -35 25 -35 14 0 25 -4 25 -10 0 -5 -20 -10 -45
-10 l-45 0 0 55 0 55 45 0 c25 0 45 -4 45 -10z m107 -16 c-3 -15 -1 -40 3 -55
7 -25 6 -29 -11 -29 -12 0 -19 7 -19 19 0 11 -4 23 -10 26 -6 4 -10 -5 -10
-19 0 -19 -5 -26 -20 -26 -18 0 -20 7 -20 55 l0 55 46 0 c45 0 46 -1 41 -26z
m108 -11 c3 -21 8 -46 10 -55 2 -12 -3 -18 -16 -18 -10 0 -19 7 -19 15 0 8 -4
15 -10 15 -5 0 -10 -7 -10 -15 0 -8 -9 -15 -20 -15 -16 0 -20 7 -20 33 0 17
-3 42 -6 55 -6 20 -3 22 39 22 45 0 46 -1 52 -37z m100 27 c4 -6 -5 -10 -19
-10 -14 0 -26 -4 -26 -10 0 -10 13 -14 37 -11 6 1 14 -3 18 -9 4 -6 -4 -10
-19 -10 -21 0 -26 -5 -26 -25 0 -15 -6 -25 -14 -25 -20 0 -23 7 -31 63 l-7 47
40 0 c23 0 44 -4 47 -10z m105 1 c0 -5 -5 -11 -11 -13 -9 -3 -9 -14 1 -42 6
-20 9 -40 6 -43 -13 -13 -35 9 -42 43 -4 24 -13 38 -25 41 -35 10 -19 23 26
23 25 0 45 -4 45 -9z m-1095 -61 c3 -5 1 -10 -4 -10 -6 0 -11 5 -11 10 0 6 2
10 4 10 3 0 8 -4 11 -10z m668 -7 c-7 -2 -19 -2 -25 0 -7 3 -2 5 12 5 14 0 19
-2 13 -5z"/>
<path d="M853 1109 c15 -24 37 -25 37 -1 0 11 -8 17 -24 18 -22 2 -23 0 -13
-17z"/>
<path d="M540 1272 c0 -5 7 -9 15 -9 8 0 12 4 9 9 -3 4 -9 8 -15 8 -5 0 -9 -4
-9 -8z"/>
<path d="M608 1245 c2 -19 5 -35 7 -35 2 0 5 16 7 35 2 21 0 35 -7 35 -7 0 -9
-14 -7 -35z"/>
<path d="M1031 1266 c-9 -10 -8 -15 4 -19 8 -4 14 -1 12 5 -1 6 4 13 12 16 10
3 12 0 8 -12 -7 -16 8 -23 17 -8 3 5 19 9 36 10 17 0 28 -4 25 -9 -4 -5 2 -12
11 -16 10 -4 19 -2 21 4 3 7 23 10 54 7 44 -4 49 -2 49 16 0 19 -6 20 -119 20
-89 0 -121 -3 -130 -14z"/>
<path d="M1088 1203 c6 -2 18 -2 25 0 6 3 1 5 -13 5 -14 0 -19 -2 -12 -5z"/>
<path d="M1219 955 c-3 -2 -4 -25 -3 -50 2 -24 -1 -47 -7 -50 -5 -4 -9 3 -9
14 0 12 -7 21 -15 21 -11 0 -14 -10 -12 -40 2 -42 6 -46 35 -31 9 5 29 13 43
19 14 6 26 17 26 26 0 8 -4 13 -9 10 -4 -3 -8 0 -8 5 0 6 5 11 12 11 7 0 5 5
-4 13 -9 6 -18 21 -20 31 -3 19 -20 31 -29 21z"/>
<path d="M1208 808 c-16 -5 -28 -17 -28 -26 -1 -9 -7 -28 -14 -40 -12 -22 -14
-23 -29 -8 -19 19 -27 20 -27 3 0 -7 -10 -13 -22 -14 -13 0 -18 1 -11 4 13 5
6 33 -8 33 -5 0 -8 -3 -8 -7 3 -21 -2 -33 -12 -28 -6 4 -8 13 -5 20 6 17 -23
13 -34 -4 -6 -11 -8 -11 -12 0 -3 8 -9 10 -19 4 -14 -10 -27 -13 -66 -19 -34
-5 -28 21 6 29 23 5 28 10 24 26 -4 13 -11 18 -20 15 -8 -3 -24 -6 -34 -6 -14
0 -19 -6 -17 -18 2 -11 -3 -26 -11 -35 -20 -25 -8 -45 25 -39 19 3 25 1 20 -7
-4 -6 -4 -20 -1 -31 6 -18 8 -18 21 -5 21 20 35 9 28 -21 -5 -20 -3 -24 17
-24 40 0 69 -12 69 -26 0 -8 -3 -13 -7 -12 -5 1 -21 -4 -36 -10 -16 -7 -32
-12 -37 -12 -5 0 -6 -7 -3 -17 4 -10 2 -14 -4 -10 -6 4 -13 -2 -16 -13 -6 -23
-3 -24 25 -9 14 8 23 8 31 0 6 -6 20 -11 30 -11 14 0 18 5 14 20 -3 11 -1 20
4 20 5 0 9 5 9 11 0 5 -5 7 -12 3 -7 -4 -8 -3 -4 4 10 17 26 15 26 -3 0 -8 9
-15 19 -15 15 0 19 7 17 33 0 17 -5 35 -10 38 -12 9 0 39 15 39 6 0 9 -7 6
-15 -4 -8 -2 -17 2 -20 5 -2 12 6 15 20 4 15 14 25 24 25 11 0 13 -3 5 -8 -8
-5 -8 -12 3 -27 12 -16 16 -17 23 -6 5 8 7 20 4 27 -2 6 0 15 6 19 7 3 11 -2
11 -14 0 -20 32 -37 50 -26 5 3 10 20 10 37 0 29 -2 30 -32 25 -18 -3 -41 -8
-50 -12 -11 -4 -18 -3 -18 4 0 13 40 30 77 33 13 2 30 9 36 17 10 12 9 14 -5
8 -10 -3 -18 -2 -18 3 0 6 7 10 15 10 12 0 15 10 13 40 -2 44 -15 49 -70 28z
m-218 -108 c0 -13 -7 -20 -19 -20 -22 0 -35 15 -26 30 12 19 45 11 45 -10z
m163 3 c3 -5 2 -15 -2 -24 -6 -16 -20 -17 -116 -10 -38 2 -39 3 -15 12 23 10
89 25 117 28 6 1 14 -2 16 -6z"/>
<path d="M527 720 c-9 -13 -20 -18 -31 -14 -11 4 -16 1 -16 -11 0 -9 5 -13 11
-9 6 3 14 2 18 -3 11 -17 71 -24 71 -9 0 7 7 19 15 26 8 7 12 16 9 21 -9 15
-24 10 -24 -7 0 -8 -5 -12 -11 -9 -6 4 -8 13 -5 21 8 22 -21 17 -37 -6z m23
-16 c0 -8 -5 -12 -10 -9 -6 4 -8 11 -5 16 9 14 15 11 15 -7z"/>
<path d="M404 708 c-4 -5 -13 -7 -21 -4 -11 4 -13 2 -9 -9 3 -9 0 -15 -9 -15
-8 0 -15 -7 -15 -14 0 -10 -20 -19 -60 -27 -33 -6 -60 -16 -60 -21 0 -5 5 -6
11 -3 5 4 18 -3 28 -14 12 -14 30 -21 52 -20 44 1 77 13 61 23 -14 8 -16 66
-3 66 13 0 24 -34 12 -38 -6 -2 -9 -8 -6 -13 8 -12 66 1 87 19 16 14 16 16 -5
32 -12 9 -29 20 -37 23 -9 3 -10 6 -2 6 6 1 12 5 12 9 0 12 -29 11 -36 0z m56
-59 c0 -6 -4 -7 -10 -4 -5 3 -10 11 -10 16 0 6 5 7 10 4 6 -3 10 -11 10 -16z"/>
<path d="M638 699 c-41 -21 -42 -22 -29 -47 4 -9 11 -29 15 -44 5 -24 3 -28
-15 -28 -17 0 -20 -5 -16 -21 3 -12 3 -18 0 -15 -3 3 -15 0 -26 -5 -15 -8 -22
-8 -28 2 -4 7 -5 17 -3 21 3 4 -2 8 -10 8 -21 0 -31 21 -15 31 24 15 3 19 -32
7 -39 -15 -43 -35 -14 -61 20 -17 19 -17 -7 -6 -15 7 -30 20 -33 31 -4 10 -10
18 -15 18 -6 0 -5 -11 0 -26 13 -34 13 -34 -10 -34 -14 0 -18 -5 -13 -17 4
-11 3 -14 -5 -9 -7 4 -12 17 -13 29 l0 22 -9 -22 c-5 -13 -17 -23 -26 -23 -11
0 -15 -6 -11 -20 4 -17 2 -18 -15 -9 -28 15 -42 6 -44 -28 -1 -23 2 -30 12
-26 12 4 12 0 4 -22 -13 -35 -13 -40 5 -25 8 7 15 23 15 35 0 17 8 26 30 34
17 5 30 7 30 3 0 -4 5 0 10 8 5 8 10 11 10 5 0 -5 16 -11 35 -12 19 -2 35 2
35 7 0 6 -5 10 -11 10 -5 0 -7 5 -4 10 3 6 11 10 16 10 6 0 7 -5 3 -11 -7 -12
23 -9 59 6 12 5 17 3 17 -8 0 -9 8 -18 18 -21 9 -2 1 -2 -19 1 -44 6 -61 -12
-26 -28 33 -15 67 3 67 36 0 16 6 25 15 25 8 0 15 9 15 20 0 11 7 23 15 27 22
8 30 -4 16 -21 -9 -11 -10 -20 -1 -35 12 -24 15 -25 41 -11 16 9 21 7 30 -17
6 -15 8 -38 6 -50 -2 -12 -1 -20 4 -18 4 3 9 0 11 -6 2 -7 13 -9 26 -5 27 9
29 26 2 26 -11 0 -20 5 -20 10 0 6 6 10 14 10 25 0 28 19 11 70 -14 42 -42 75
-56 67 -2 -1 2 4 10 11 8 6 11 12 5 12 -11 0 17 20 29 20 5 0 5 -9 2 -20 -8
-26 9 -26 33 1 17 17 20 18 25 5 8 -20 21 -20 41 -1 8 8 21 12 29 9 16 -6 33
13 22 24 -3 3 -10 0 -14 -7 -7 -10 -12 -8 -24 10 -18 26 -11 49 7 24 11 -15
13 -15 25 -1 11 13 9 16 -16 22 -15 4 -34 13 -41 21 -18 18 -58 17 -66 -2 -7
-19 3 -47 15 -39 5 3 6 -2 3 -10 -10 -26 -34 -26 -61 0 -18 19 -28 22 -33 14
-4 -7 -13 -9 -19 -6 -14 9 -14 4 -1 -28 7 -20 6 -26 -5 -26 -15 0 -28 29 -23
51 4 17 37 38 62 39 12 0 16 5 12 16 -3 9 -6 18 -6 20 0 10 -38 1 -72 -17z
m182 -38 c13 -25 13 -68 -1 -76 -6 -4 -9 2 -8 17 4 44 -1 59 -23 68 l-23 9 22
0 c12 1 27 -8 33 -18z m-297 -107 c6 -7 -13 -54 -22 -54 -4 0 -8 14 -9 30 -2
28 14 41 31 24z m193 -23 c-7 -11 -56 -21 -56 -11 0 13 13 20 37 20 13 0 22
-4 19 -9z"/>
<path d="M300 659 c0 -5 5 -7 10 -4 6 3 10 8 10 11 0 2 -4 4 -10 4 -5 0 -10
-5 -10 -11z"/>
<path d="M250 650 c0 -5 5 -10 10 -10 6 0 10 5 10 10 0 6 -4 10 -10 10 -5 0
-10 -4 -10 -10z"/>
<path d="M1272 605 c0 -16 2 -22 5 -12 2 9 2 23 0 30 -3 6 -5 -1 -5 -18z"/>
<path d="M106 574 c-9 -24 -7 -31 4 -14 9 13 11 13 20 0 11 -17 13 -10 4 14
-3 9 -10 16 -14 16 -4 0 -11 -7 -14 -16z"/>
<path d="M186 555 c4 -10 1 -14 -7 -12 -8 2 -11 2 -7 0 4 -3 2 -13 -5 -23 -8
-14 -8 -23 -1 -30 8 -8 10 -4 10 12 -1 13 4 22 12 21 14 -3 16 33 2 42 -6 3
-7 -1 -4 -10z"/>
<path d="M870 560 c0 -5 5 -10 11 -10 5 0 7 5 4 10 -3 6 -8 10 -11 10 -2 0 -4
-4 -4 -10z"/>
<path d="M110 530 c0 -5 5 -10 11 -10 5 0 7 5 4 10 -3 6 -8 10 -11 10 -2 0 -4
-4 -4 -10z"/>
<path d="M40 510 c0 -5 7 -10 15 -10 8 0 15 -7 15 -16 0 -8 -3 -13 -7 -11 -5
3 -14 -1 -20 -9 -8 -8 -9 -15 -3 -19 6 -3 10 -1 10 4 0 6 7 11 15 11 22 0 18
38 -5 50 -14 7 -20 7 -20 0z"/>
<path d="M85 510 c3 -5 8 -10 11 -10 2 0 4 5 4 10 0 6 -5 10 -11 10 -5 0 -7
-4 -4 -10z"/>
<path d="M10 498 c0 -9 5 -20 11 -23 17 -11 20 0 4 21 -13 17 -14 17 -15 2z"/>
<path d="M815 500 c-9 -14 33 -60 54 -60 14 1 14 2 -1 14 -10 7 -16 15 -14 17
2 2 -5 12 -14 22 -13 13 -20 15 -25 7z"/>
<path d="M890 480 c19 -13 30 -13 30 0 0 6 -10 10 -22 10 -19 0 -20 -2 -8 -10z"/>
<path d="M1 454 c0 -11 3 -14 6 -6 3 7 2 16 -1 19 -3 4 -6 -2 -5 -13z"/>
<path d="M145 460 c-3 -5 -1 -10 4 -10 6 0 11 5 11 10 0 6 -2 10 -4 10 -3 0
-8 -4 -11 -10z"/>
<path d="M998 463 c-16 -2 -28 -9 -28 -14 0 -10 44 -2 70 12 17 9 10 10 -42 2z"/>
<path d="M80 430 c0 -5 5 -10 10 -10 6 0 10 5 10 10 0 6 -4 10 -10 10 -5 0
-10 -4 -10 -10z"/>
<path d="M10 420 c0 -6 7 -10 15 -10 8 0 15 2 15 4 0 2 -7 6 -15 10 -8 3 -15
1 -15 -4z"/>
<path d="M1237 423 c-11 -10 -8 -43 4 -43 6 0 8 -9 4 -21 -7 -20 7 -38 28 -39
4 0 7 25 7 55 0 47 -3 55 -18 55 -10 0 -22 -3 -25 -7z"/>
<path d="M346 403 c-4 -9 -4 -18 -2 -21 8 -7 36 6 36 17 0 16 -28 20 -34 4z"/>
<path d="M456 395 c4 -9 11 -14 16 -13 15 5 11 23 -6 26 -11 2 -14 -2 -10 -13z"/>
<path d="M972 396 c-29 -6 -53 -14 -53 -18 1 -5 1 -14 1 -20 0 -9 4 -8 10 2 8
12 12 13 19 2 11 -18 24 -15 37 10 8 14 13 17 18 9 6 -9 11 -9 22 0 15 12 19
30 7 28 -5 -1 -32 -6 -61 -13z"/>
<path d="M856 373 c-37 -9 -45 -27 -26 -51 10 -12 21 -22 25 -22 12 0 44 45
45 63 0 17 -8 19 -44 10z"/>
<path d="M223 363 c-7 -2 -13 -12 -13 -20 0 -13 -3 -13 -15 -3 -23 19 -65 -2
-58 -29 3 -12 10 -21 15 -21 5 0 6 9 3 20 -8 24 -2 25 19 5 14 -14 18 -14 41
1 14 9 25 22 25 29 0 7 6 16 13 18 8 4 7 5 -3 5 -8 0 -21 -2 -27 -5z"/>
<path d="M1140 325 c0 -8 4 -15 10 -15 5 0 7 7 4 15 -4 8 -8 15 -10 15 -2 0
-4 -7 -4 -15z"/>
<path d="M380 311 c-23 -4 -31 -9 -22 -14 6 -5 12 -5 12 0 0 4 4 2 9 -5 6 -11
11 -10 24 3 9 9 21 13 27 10 5 -3 10 -1 10 4 0 12 -5 12 -60 2z"/>
<path d="M609 264 c-8 -32 -16 -44 -26 -40 -10 4 -13 1 -9 -12 3 -9 1 -24 -4
-32 -8 -13 -10 -13 -10 2 0 9 -4 19 -9 23 -6 3 -6 -7 0 -27 11 -40 11 -38 -1
-38 -5 0 -10 8 -10 19 0 10 -8 25 -17 32 -17 13 -17 12 -4 -4 11 -14 12 -20 3
-26 -9 -5 -8 -12 3 -27 23 -31 17 -40 -10 -14 -24 23 -37 16 -14 -7 12 -12 6
-43 -9 -43 -12 0 -51 148 -45 171 3 11 10 16 17 12 12 -8 36 -13 36 -8 0 20
-15 31 -39 27 -25 -3 -31 -12 -50 -70 -12 -37 -28 -78 -35 -91 -11 -21 -12
-31 -1 -62 8 -20 11 -40 8 -43 -4 -3 17 -6 45 -6 52 0 57 4 52 40 -1 8 1 12 5
8 3 -3 8 -14 9 -25 3 -15 11 -18 52 -16 84 5 98 4 137 -3 44 -7 43 -9 18 99
-10 42 -15 77 -10 77 5 0 9 7 9 16 0 14 3 14 15 4 9 -7 18 -10 22 -7 3 4 12 2
20 -4 10 -9 12 -6 7 20 -7 34 8 43 25 14 6 -10 11 -12 11 -5 0 17 20 15 20 -3
0 -18 16 -20 23 -2 4 9 8 9 15 -1 7 -11 11 -7 16 13 6 23 11 26 31 21 15 -4
25 -2 25 4 0 6 -4 8 -10 5 -5 -3 -10 -1 -10 5 0 7 8 9 20 5 14 -5 20 -2 20 10
0 11 -6 15 -17 11 -39 -12 -234 -56 -248 -56 -8 0 -22 18 -31 40 -9 22 -20 40
-25 40 -5 0 -14 -21 -20 -46z"/>
<path d="M1060 299 c0 -5 4 -9 9 -9 5 0 9 -21 8 -47 l-2 -48 48 -3 c35 -2 57
2 81 17 30 19 35 19 46 6 7 -8 16 -30 20 -48 7 -26 8 -21 9 31 1 56 -1 64 -21
71 -29 11 -83 -16 -69 -33 12 -14 5 -26 -16 -26 -7 0 -13 6 -13 14 0 7 -9 16
-19 19 -11 2 -21 15 -23 28 -2 15 -12 25 -30 30 -16 4 -28 3 -28 -2z m170 -53
c0 -2 -7 -6 -15 -10 -8 -3 -15 -1 -15 4 0 6 7 10 15 10 8 0 15 -2 15 -4z"/>
<path d="M296 285 c-8 -8 -22 -15 -31 -15 -9 0 -13 -4 -10 -10 9 -14 21 -12
38 5 8 8 24 12 35 10 15 -2 19 1 15 11 -7 18 -28 18 -47 -1z"/>
<path d="M93 253 c-7 -2 -13 -13 -13 -24 0 -14 7 -19 28 -19 36 0 54 13 46 33
-6 16 -35 21 -61 10z"/>
<path d="M210 250 c0 -5 7 -7 15 -4 8 4 15 8 15 10 0 2 -7 4 -15 4 -8 0 -15
-4 -15 -10z"/>
<path d="M294 223 c-3 -13 -10 -23 -15 -23 -5 0 -6 8 -3 18 4 10 2 13 -3 7 -4
-6 -21 -18 -36 -28 -22 -14 -27 -23 -21 -40 10 -34 20 -40 44 -27 28 15 33 9
20 -25 -8 -21 -8 -30 0 -35 7 -4 12 -11 11 -16 -1 -37 13 -54 45 -54 37 0 41
10 23 57 -6 15 -15 42 -20 58 -34 122 -38 130 -45 108z"/>
<path d="M1028 203 c7 -3 16 -2 19 1 4 3 -2 6 -13 5 -11 0 -14 -3 -6 -6z"/>
<path d="M60 190 c-9 -6 -10 -10 -3 -10 6 0 15 5 18 10 8 12 4 12 -15 0z"/>
<path d="M983 193 c-7 -2 -13 -11 -13 -18 0 -17 20 -23 50 -14 25 7 25 7 -4 8
-21 1 -27 5 -22 16 3 8 4 15 3 14 -1 0 -8 -3 -14 -6z"/>
<path d="M1198 183 c6 -2 18 -2 25 0 6 3 1 5 -13 5 -14 0 -19 -2 -12 -5z"/>
<path d="M25 170 c-3 -5 -3 -16 0 -22 4 -7 -1 -4 -9 6 -15 19 -16 16 -16 -38
l0 -58 25 16 c33 21 48 20 42 -3 -3 -14 2 -21 17 -25 32 -9 56 -7 56 4 0 6 -7
10 -16 10 -13 0 -14 3 -5 14 10 12 8 17 -8 26 -12 6 -21 15 -21 21 0 16 31 23
40 9 6 -10 12 -8 26 8 10 12 21 19 26 16 4 -3 8 0 8 6 0 8 -19 10 -62 7 -34
-3 -70 -1 -80 4 -10 6 -19 5 -23 -1z"/>
<path d="M1120 173 c-14 -3 -33 -14 -44 -25 -15 -16 -20 -17 -27 -6 -8 11 -13
5 -11 -13 1 -4 -10 -10 -23 -13 -37 -9 -35 -67 3 -94 17 -13 33 -17 42 -12 8
4 30 11 49 15 29 6 33 5 28 -10 -5 -13 -2 -16 16 -13 17 2 21 9 19 27 -3 32
-11 39 -22 22 -13 -21 -37 -6 -45 28 -7 32 -12 35 -39 25 -24 -9 -19 -23 12
-35 l27 -11 -37 -15 c-27 -11 -42 -12 -55 -4 -17 10 -16 11 5 17 25 7 29 22 7
30 -25 10 -17 21 21 29 21 3 44 16 54 27 10 12 29 21 48 22 18 0 32 4 32 9 0
7 -18 7 -60 0z m50 -147 c0 -3 -4 -8 -10 -11 -5 -3 -10 -1 -10 4 0 6 5 11 10
11 6 0 10 -2 10 -4z"/>
<path d="M195 100 c-3 -5 3 -10 15 -10 12 0 18 5 15 10 -3 6 -10 10 -15 10 -5
0 -12 -4 -15 -10z"/>
<path d="M248 103 c7 -3 16 -2 19 1 4 3 -2 6 -13 5 -11 0 -14 -3 -6 -6z"/>
<path d="M257 63 c-13 -12 -7 -63 6 -63 8 0 12 11 11 31 -2 33 -7 43 -17 32z"/>
<path d="M195 47 c-4 -11 -3 -23 4 -30 15 -15 19 -7 11 23 -6 22 -8 23 -15 7z"/>
<path d="M1222 13 c-10 -10 -5 -12 22 -11 23 1 33 5 29 14 -6 16 -36 14 -51
-3z"/>
</g>
</svg>
