<?xml version="1.0" standalone="no"?>
<!DOCTYPE svg PUBLIC "-//W3C//DTD SVG 20010904//EN"
 "http://www.w3.org/TR/2001/REC-SVG-20010904/DTD/svg10.dtd">
<svg version="1.0" xmlns="http://www.w3.org/2000/svg"
 width="128.000000pt" height="128.000000pt" viewBox="0 0 128.000000 128.000000"
 preserveAspectRatio="xMidYMid meet">

<g transform="translate(0.000000,128.000000) scale(0.100000,-0.100000)"
fill="#000000" stroke="none">
<path d="M31 1228 c1 -29 3 -46 5 -38 3 9 19 21 36 28 21 8 29 16 25 26 -4 9
1 20 11 25 13 8 6 10 -30 11 l-48 0 1 -52z"/>
<path d="M139 1278 c-1 -3 -8 -160 -9 -193 -1 -28 9 -95 19 -134 7 -24 10 -54
7 -67 -3 -12 -2 -34 4 -48 11 -29 4 -32 -24 -11 -29 22 -38 18 -32 -12 4 -16
8 -47 10 -70 4 -45 12 -63 27 -63 5 0 7 11 3 24 -4 16 -1 25 10 29 9 4 16 13
16 21 0 8 5 16 11 18 12 4 41 78 30 76 -22 -2 -21 5 4 26 26 23 30 23 41 8 7
-9 14 -15 16 -12 2 3 8 13 13 24 18 31 30 20 38 -36 13 -82 3 -137 -43 -261
-20 -54 -21 -60 -6 -76 15 -17 15 -19 0 -31 -10 -9 -18 -10 -22 -4 -4 6 -25
23 -47 39 -22 16 -50 39 -61 53 -19 21 -24 23 -45 11 -22 -11 -23 -11 -10 4
17 22 10 39 -30 68 -31 21 -32 14 -4 -21 7 -8 15 -31 19 -50 3 -19 7 -39 9
-45 16 -45 28 -65 36 -60 5 3 12 1 16 -5 3 -5 14 -10 23 -10 15 1 15 2 -2 15
-14 11 -16 15 -5 15 8 0 10 3 4 8 -5 4 -11 16 -13 27 -2 19 -1 19 17 -3 11
-12 32 -29 47 -37 15 -8 29 -20 30 -27 1 -7 5 -21 9 -30 6 -14 2 -18 -16 -18
-12 0 -30 -7 -39 -15 -10 -9 -40 -18 -68 -20 -29 -3 -62 -10 -74 -15 -18 -8
-12 -9 22 -4 31 4 42 3 35 -4 -5 -6 -23 -12 -40 -14 l-30 -3 -3 -173 -2 -172
95 0 c95 0 95 0 95 25 0 22 4 25 36 25 34 0 36 -2 30 -25 -5 -20 -3 -25 14
-25 14 0 20 7 21 23 1 21 1 21 9 -3 5 -14 8 -18 9 -9 2 28 28 43 54 31 22 -11
22 -11 -3 -9 -16 1 -25 -4 -28 -16 -3 -14 4 -17 32 -17 32 0 36 3 37 28 1 16
3 20 6 10 5 -21 14 -23 30 -7 8 8 11 6 10 -7 -2 -15 6 -20 37 -22 37 -3 38 -2
34 22 -5 24 -2 26 27 26 39 0 47 -7 34 -31 -8 -16 -6 -19 10 -19 12 0 21 8 24
23 l4 22 2 -22 c1 -25 21 -32 21 -9 0 8 4 17 9 20 5 4 7 -3 4 -14 -4 -16 0
-20 21 -20 30 0 34 16 9 37 -16 13 -16 13 5 3 12 -6 22 -17 22 -25 0 -8 5 -15
10 -15 6 0 10 9 10 20 0 11 5 20 11 20 5 0 7 -4 4 -10 -3 -5 4 -10 16 -10 18
0 19 2 9 15 -11 13 -10 14 4 9 11 -4 16 -14 13 -25 -3 -12 0 -19 9 -19 8 0 14
9 14 20 0 11 5 20 10 20 6 0 10 -9 10 -20 0 -12 7 -20 16 -20 11 0 15 6 11 20
-7 27 12 25 22 -2 l8 -22 12 22 c15 27 27 28 34 2 7 -26 37 -26 37 0 0 24 13
26 31 4 12 -14 14 -14 20 3 7 16 8 15 8 -4 1 -22 4 -23 96 -23 l95 0 -1 198
c-1 108 -4 185 -6 170 -4 -27 -32 -48 -34 -25 0 7 -2 26 -3 42 -1 19 4 35 16
43 20 15 22 30 8 52 -8 12 -13 11 -33 -8 -13 -12 -26 -19 -30 -16 -3 3 -21 -3
-39 -14 -21 -13 -43 -18 -60 -15 -39 7 -24 23 21 23 24 0 44 6 52 16 12 15 11
16 -11 8 -14 -5 -51 -9 -82 -9 -45 0 -58 -3 -58 -15 0 -13 -2 -13 -9 -1 -7 11
-12 6 -19 -20 -9 -32 -8 -36 32 -71 22 -20 45 -36 51 -35 5 1 9 -6 9 -15 -1
-10 3 -16 9 -15 6 1 13 -6 15 -16 3 -16 0 -18 -19 -12 -18 6 -21 4 -16 -10 4
-9 7 -19 7 -21 0 -11 24 -2 36 14 11 14 15 15 23 3 14 -21 3 -39 -25 -39 -32
0 -57 -21 -51 -44 3 -10 1 -15 -4 -12 -6 3 -17 0 -26 -8 -15 -11 -16 -10 -11
10 4 12 2 20 -3 17 -5 -3 -25 -8 -45 -11 -35 -4 -36 -3 -29 23 6 24 5 25 -12
12 -10 -8 -20 -17 -23 -20 -6 -7 -46 -29 -54 -29 -2 0 -6 8 -8 17 -2 10 -12
18 -23 18 -15 0 -21 10 -27 45 -4 25 -14 50 -21 55 -8 6 -17 20 -21 33 -8 23
-45 38 -72 28 -21 -8 -95 4 -88 15 3 5 -3 9 -13 9 -11 0 -25 6 -32 12 -10 11
-12 10 -11 -2 1 -8 2 -20 1 -27 -1 -14 -67 -9 -88 8 -13 11 -12 14 6 21 12 4
18 13 15 22 -3 8 -1 17 5 21 6 3 11 15 11 25 0 11 7 35 16 53 l17 35 35 -24
c19 -13 47 -24 61 -23 23 0 24 1 6 9 -15 7 -16 9 -4 9 33 2 -7 119 -58 171
-20 20 -26 22 -34 10 -9 -14 -12 -25 -24 -85 -4 -20 -10 -23 -35 -20 -21 2
-31 -1 -34 -13 -3 -10 -15 -23 -27 -30 -19 -12 -20 -11 -14 7 4 13 2 21 -5 21
-8 0 -11 -11 -8 -30 3 -21 1 -27 -6 -20 -18 18 10 117 45 157 33 39 33 40 10
153 -5 25 -6 51 -1 59 5 10 10 5 15 -19 4 -19 13 -40 19 -47 6 -7 17 -20 25
-28 9 -11 17 -13 23 -7 15 15 0 49 -22 55 -12 3 -20 14 -20 26 0 26 12 27 28
1 17 -28 40 -26 35 4 -3 13 0 27 6 30 6 4 11 16 11 27 0 11 7 19 18 19 14 0
15 -2 2 -10 -12 -8 -12 -10 -1 -10 11 0 11 -3 1 -15 -9 -11 -10 -15 -1 -15 7
0 19 7 27 15 9 8 11 15 5 15 -6 0 -11 7 -11 15 0 18 5 18 31 5 10 -6 19 -17
19 -25 0 -8 3 -15 6 -15 8 0 35 28 35 37 2 22 9 13 9 -11 0 -18 5 -26 13 -23
6 2 12 11 12 19 0 9 11 25 25 37 l25 20 -24 1 c-24 0 -24 0 -5 15 18 14 18 14
-8 15 -15 0 -29 4 -32 9 -3 5 -16 7 -29 4 -16 -3 -18 -2 -8 5 11 8 10 12 -7
21 -25 13 -125 7 -130 -8 -2 -6 -14 -11 -28 -11 -17 0 -29 -10 -44 -39 -11
-22 -25 -43 -31 -47 -8 -4 -8 -9 -1 -13 7 -4 8 -12 2 -21 -6 -10 -14 4 -27 48
-19 65 -29 77 -35 40 -3 -21 -6 -19 -28 16 -14 22 -33 51 -42 65 -22 35 -27
73 -9 79 9 3 11 0 7 -7 -6 -8 3 -11 29 -9 20 1 39 -2 43 -8 8 -11 27 -12 37
-2 4 4 -6 10 -21 14 -60 14 -154 82 -154 111 0 10 -48 20 -51 11z m461 -249
c0 -6 -4 -7 -10 -4 -5 3 -10 11 -10 16 0 6 5 7 10 4 6 -3 10 -11 10 -16z
m-227 -259 c3 -11 2 -18 -3 -15 -4 3 -10 14 -13 25 -3 11 -2 18 3 15 4 -3 10
-14 13 -25z m-13 -35 c0 -5 -5 -3 -10 5 -5 8 -10 20 -10 25 0 6 5 3 10 -5 5
-8 10 -19 10 -25z m40 -19 c0 -3 -4 -8 -10 -11 -5 -3 -10 -1 -10 4 0 6 5 11
10 11 6 0 10 -2 10 -4z m-50 -16 c0 -5 -4 -10 -9 -10 -6 0 -13 5 -16 10 -3 6
1 10 9 10 9 0 16 -4 16 -10z m-45 -170 c3 -5 -1 -10 -10 -10 -9 0 -13 5 -10
10 3 6 8 10 10 10 2 0 7 -4 10 -10z m152 -206 c-3 -3 -12 -4 -19 -1 -8 3 -5 6
6 6 11 1 17 -2 13 -5z m74 -10 c10 -9 15 -22 13 -29 -3 -7 6 -15 25 -18 17 -4
31 -11 31 -17 0 -28 -108 39 -109 68 -1 17 19 15 40 -4z m173 -49 c-5 -11 -2
-13 11 -9 15 6 16 3 10 -27 -11 -50 -12 -50 -52 -24 -20 14 -39 25 -42 25 -3
0 -7 11 -7 25 -2 23 1 25 42 25 35 0 42 -3 38 -15z m96 -118 c8 -2 21 -6 28
-10 7 -5 12 -4 12 2 0 7 27 11 69 11 60 0 69 -2 74 -20 5 -20 -7 -28 -17 -11
-3 5 -15 7 -26 4 -13 -3 -20 0 -21 8 0 8 -4 5 -9 -6 -8 -19 -9 -19 -9 -1 -1
19 -1 19 -14 1 -10 -12 -19 -15 -28 -9 -21 13 -41 14 -60 3 -10 -5 -20 -5 -23
0 -3 4 -17 6 -31 3 -19 -3 -25 0 -25 13 0 14 3 15 15 5 12 -10 15 -7 21 14 5
23 8 25 18 11 6 -9 18 -17 26 -18z m-570 -18 c0 -12 -5 -16 -15 -13 -19 8 -19
31 0 31 8 0 15 -8 15 -18z m80 1 c0 -11 -7 -20 -15 -20 -8 0 -15 9 -15 20 0
11 7 20 15 20 8 0 15 -9 15 -20z m34 -12 c7 -5 4 -8 -6 -8 -12 0 -18 7 -17 23
0 15 2 17 6 7 3 -8 11 -18 17 -22z m46 21 c0 11 3 11 15 1 11 -9 15 -9 15 -1
0 7 5 9 10 6 21 -13 9 -25 -24 -25 -34 0 -52 11 -39 24 4 3 10 1 15 -6 6 -10
8 -10 8 1z m95 -10 c2 -12 -3 -15 -16 -12 -10 3 -19 12 -19 20 0 20 32 12 35
-8z m82 1 c-1 -12 -9 -17 -28 -16 -52 3 -52 33 0 33 22 0 29 -5 28 -17z m60 2
c20 16 65 18 75 4 4 -6 2 -14 -5 -18 -18 -11 -29 -10 -21 4 5 7 3 8 -7 2 -8
-5 -26 -9 -41 -10 -23 -1 -28 2 -27 20 1 17 2 18 6 3 4 -15 7 -16 20 -5z m441
4 c13 -8 7 -26 -9 -26 -6 0 -7 5 -4 10 9 14 -8 13 -23 -2 -9 -9 -15 -9 -23 -1
-25 25 24 41 59 19z m-803 -6 c3 -5 1 -10 -4 -10 -6 0 -11 5 -11 10 0 6 2 10
4 10 3 0 8 -4 11 -10z"/>
<path d="M640 250 c0 -5 5 -10 11 -10 5 0 7 5 4 10 -3 6 -8 10 -11 10 -2 0 -4
-4 -4 -10z"/>
<path d="M1122 1183 c28 -54 59 -108 71 -120 11 -13 17 -23 13 -23 -5 0 -4 -6
1 -12 6 -7 15 -40 21 -73 7 -33 13 -69 16 -80 2 -11 4 76 5 193 l1 212 -89 0
-89 0 50 -97z"/>
<path d="M915 1230 c-29 -13 -41 -26 -45 -46 -4 -20 -17 -34 -49 -51 l-44 -23
31 0 c24 0 32 -4 32 -17 0 -19 -20 -55 -20 -38 0 6 -10 -6 -22 -25 -16 -27
-22 -52 -22 -107 -1 -40 -3 -68 -4 -62 -3 6 -9 6 -18 -2 -15 -12 -20 -94 -5
-85 4 3 20 0 34 -7 28 -13 44 -62 27 -82 -8 -10 -3 -14 20 -17 26 -4 30 -1 30
18 0 13 5 26 11 29 6 4 9 21 8 39 -2 17 0 36 4 43 12 19 -22 8 -39 -13 -15
-19 -15 -18 -11 3 3 13 1 25 -3 28 -5 3 -10 -4 -12 -15 -2 -14 -7 -17 -18 -10
-12 8 -11 13 8 33 12 13 19 27 15 30 -3 4 1 7 9 7 21 0 28 34 13 62 -11 23 -4
68 11 68 3 0 3 -7 0 -16 -3 -9 13 -2 40 18 39 28 54 32 105 33 32 0 59 2 59 4
0 3 -12 17 -26 32 -18 19 -28 42 -31 73 -3 25 -9 46 -12 46 -4 0 -5 16 -3 35
5 42 -10 45 -73 15z"/>
<path d="M720 1099 c0 -5 5 -7 10 -4 6 3 10 8 10 11 0 2 -4 4 -10 4 -5 0 -10
-5 -10 -11z"/>
<path d="M1080 835 c-7 -17 -12 -45 -12 -62 0 -18 -4 -30 -9 -27 -5 3 -9 -10
-9 -28 0 -30 6 -37 65 -71 53 -32 63 -42 56 -56 -6 -11 -4 -23 5 -35 7 -11 15
-18 17 -15 25 35 42 72 47 107 6 36 4 42 -11 42 -19 0 -52 40 -63 78 -10 31
-22 28 -46 -15 l-21 -38 4 61 c6 74 -6 103 -23 59z"/>
<path d="M670 843 c0 -4 5 -15 10 -23 8 -13 10 -13 10 2 0 9 -4 20 -10 23 -5
3 -10 3 -10 -2z"/>
<path d="M945 822 c1 -10 8 -31 16 -49 13 -29 16 -30 26 -14 9 14 7 20 -8 29
-10 7 -16 18 -13 26 3 7 -1 16 -9 19 -9 3 -14 -1 -12 -11z"/>
<path d="M1122 820 c0 -14 2 -19 5 -12 2 6 2 18 0 25 -3 6 -5 1 -5 -13z"/>
<path d="M1006 755 c-19 -30 -20 -45 -3 -45 8 0 14 6 14 13 0 6 3 22 7 35 10
29 2 28 -18 -3z"/>
<path d="M674 716 c-8 -17 -8 -29 1 -46 11 -20 13 -21 19 -5 5 14 9 16 18 7
15 -15 29 -15 26 -1 -2 6 11 16 27 22 38 12 37 11 29 31 -3 9 -16 16 -28 16
-21 -1 -21 -1 -2 -15 27 -20 1 -20 -38 0 -37 19 -39 19 -52 -9z"/>
<path d="M908 678 c9 -9 15 -9 24 0 9 9 7 12 -12 12 -19 0 -21 -3 -12 -12z"/>
<path d="M815 620 c3 -5 8 -10 11 -10 2 0 4 5 4 10 0 6 -5 10 -11 10 -5 0 -7
-4 -4 -10z"/>
<path d="M709 608 c-15 -10 -15 -15 -2 -46 8 -19 11 -46 8 -62 -6 -29 -6 -29
27 -17 18 6 34 12 36 13 1 0 -11 25 -27 54 -16 30 -27 58 -25 62 7 10 3 9 -17
-4z"/>
<path d="M840 572 c0 -12 23 -32 37 -32 7 0 13 5 13 11 0 6 -7 8 -16 5 -12 -4
-15 -2 -10 9 3 9 0 15 -9 15 -8 0 -15 -4 -15 -8z"/>
<path d="M1086 550 c9 -16 22 -30 30 -30 20 0 17 13 -9 38 -32 30 -38 28 -21
-8z"/>
<path d="M935 540 c-3 -5 3 -10 15 -10 12 0 18 5 15 10 -3 6 -10 10 -15 10 -5
0 -12 -4 -15 -10z"/>
<path d="M840 533 c5 -2 8 -9 4 -14 -3 -5 0 -9 6 -9 15 0 7 23 -8 26 -7 1 -8
0 -2 -3z"/>
<path d="M1166 495 c-7 -20 9 -28 23 -11 9 10 8 15 -3 19 -8 3 -17 -1 -20 -8z"/>
<path d="M851 484 c0 -11 3 -14 6 -6 3 7 2 16 -1 19 -3 4 -6 -2 -5 -13z"/>
<path d="M860 341 c0 -6 4 -13 10 -16 6 -3 7 1 4 9 -7 18 -14 21 -14 7z"/>
<path d="M240 30 c0 -5 9 -10 20 -10 11 0 20 5 20 10 0 6 -9 10 -20 10 -11 0
-20 -4 -20 -10z"/>
<path d="M560 30 c0 -5 9 -10 20 -10 11 0 20 5 20 10 0 6 -9 10 -20 10 -11 0
-20 -4 -20 -10z"/>
<path d="M1010 10 c0 -5 5 -10 11 -10 5 0 7 5 4 10 -3 6 -8 10 -11 10 -2 0 -4
-4 -4 -10z"/>
</g>
</svg>
